# xmcd
#
# Track frame offsets: 
#        150
#        12052
#        26827
#        37800
#        54577
#        72945
#        88502
#        100000
#        110925
#        133940
#        152777
#
# Disc length: 2339 seconds
#
# Revision: 0
# Processed by: cddbd v1.5.2PL0 Copyright (c) Steve Scherf et al.
# Submitted via: ExactAudioCopy v0.95b4
#
DISCID=8d09210b
DTITLE=Blues Gang - On A Second Thought
DYEAR=1985
DGENRE=Blues
TTITLE0=Scream n' Shout
TTITLE1=I Want You
TTITLE2=Want Somebody Tell me
TTITLE3=Just Call me Eazy
TTITLE4=Evil Advice
TTITLE5=Blues Grave
TTITLE6=Worst Trouble
TTITLE7=On A Second Thought
TTITLE8=Blues Bottle
TTITLE9=Daddy's Work
TTITLE10=Woman Being
EXTD=
EXTT0=
EXTT1=
EXTT2=
EXTT3=
EXTT4=
EXTT5=
EXTT6=
EXTT7=
EXTT8=
EXTT9=
EXTT10=
PLAYORDER=
